{"title":"Dredd.2012.HDRip.CROPPED.XviD.Ac3.Feel-Free","uid":7953549,"size":1251241378,"categoryP":"video","categoryS":"movies","magnet":"?xt=urn:btih:89a5b02acfce7d064bd7051c75adfaaa61f97dac&amp;dn=Dredd.2012.HDRip.CROPPED.XviD.Ac3.Feel-Free&amp;tr=udp%3A%2F%2Ftracker.openbittorrent.com%3A80&amp;tr=udp%3A%2F%2Fopen.demonii.com%3A1337&amp;tr=udp%3A%2F%2Ftracker.coppersurfer.tk%3A6969&amp;tr=udp%3A%2F%2Fexodus.desync.com%3A6969","seeders":0,"leechers":1,"uploader":".BONE.","files":9,"time":1356308295,"description":"Genre: Action | Sci-F\nLanguage:English &lt;a href=&quot;\nhttp://www.imdb.com/title/tt1343727/&quot; rel=&quot;nofollow&quot; target=&quot;_NEW&quot;&gt;\nhttp://www.imdb.com/title/tt1343727/&lt;/a&gt;\nSource:720p.HDRip.x264.AAC-JYK Thanks\nEncoder:Tony\nSUBTiTLES:Romanian\n\nFormat : AVI\nFormat/Info : Audio Video Interleave\nFile size : 1.16 GiB\nDuration : 1h 35mn\nOverall bit rate : 1 745 Kbps\n\nID : 0\nFormat : MPEG-4 Visual\nFormat profile : Advanced Simple@L5\nFormat settings, BVOP : 1\nFormat settings, QPel : No\nFormat settings, GMC : No warppoints\nFormat settings, Matrix : Default (H.263)\nCodec ID : XVID\nCodec ID/Hint : XviD\nDuration : 1h 35mn\nBit rate : 1 541 Kbps\nWidth : 640 pixels\nHeight : 248 pixels\nDisplay aspect ratio : 2.581\nFrame rate : 29.970 fps\nColor space : YUV\nChroma subsampling : 4:2:0\nBit depth : 8 bits\nScan type : Progressive\nCompression mode : Lossy\nBits/(Pixel*Frame) : 0.324\nStream size : 1.03 GiB (88%)\nWriting library : XviD 1.2.1 (UTC 2008-12-04)\n\nAudio\nID : 1\nFormat : AC-3\nFormat/Info : Audio Coding 3\nMode extension : CM (complete main)\nCodec ID : 2000\nDuration : 1h 35mn\nBit rate mode : Constant\nBit rate : 192 Kbps\nChannel(s) : 2 channels\nChannel positions : Front: L R\nSampling rate : 48.0 KHz\nBit depth : 16 bits\nCompression mode : Lossy\nStream size : 131 MiB (11%)\nAlignment : Aligned on interleaves\nInterleave, duration : 33 ms (1.00 video frame)\nInterleave, preload duration : 512 ms\n\n\nPlot:\nIn a violent, futuristic city where the police have the authority to act as judge, jury and executioner, a cop teams with a trainee to take down a gang that deals the reality-altering drug, SLO-MO.","torrent":{"xt":"urn:btih:89a5b02acfce7d064bd7051c75adfaaa61f97dac","amp;dn":"Dredd.2012.HDRip.CROPPED.XviD.Ac3.Feel-Free","amp;tr":["udp%3A%2F%2Ftracker.openbittorrent.com%3A80","udp%3A%2F%2Fopen.demonii.com%3A1337","udp%3A%2F%2Ftracker.coppersurfer.tk%3A6969","udp%3A%2F%2Fexodus.desync.com%3A6969"],"infoHash":"89a5b02acfce7d064bd7051c75adfaaa61f97dac","infoHashBuffer":{"type":"Buffer","data":[137,165,176,42,207,206,125,6,75,215,5,28,117,173,250,170,97,249,125,172]},"announce":[],"urlList":[]}}